<svg xmlns="http://www.w3.org/2000/svg" xmlns:xlink="http://www.w3.org/1999/xlink" version="1.1" viewBox="0 0 866 1416" style="background: #ffffff"><defs joint-selector="defs"></defs><g joint-selector="layers"  transform="matrix(1,0,0,1,0,0)"><g ></g><g ><g   id="j_45"  transform="translate(20,1371)"><g id="v-549"><text  id="v-550" font-size="22px" xml:space="preserve" y="0.8em" font-weight="normal" text-anchor="start" fill="#aaaaaa" pointer-events="none" font-family="Open Sans"><tspan dy="0" >Monday, 3 July 2023 at 13:36 Central European Summer Time</tspan></text></g></g><g   id="j_44"  transform="translate(20,1327)"><g id="v-547"><text  id="v-548" font-size="36px" xml:space="preserve" y="0.8em" font-weight="normal" text-anchor="start" fill="#000000" pointer-events="none" font-family="Open Sans"><tspan dy="0" >[System Landscape]</tspan></text></g></g><g   id="j_41"  transform="translate(233,208)" style=""><g  id="v-507" style="opacity: 1;"><rect  x="0" y="160" width="400" height="240" rx="70" id="v-509" stroke="#073b6f" stroke-width="2" pointer-events="visiblePainted" fill="#08427b" style="fill: rgb(8, 66, 123); stroke: rgb(7, 59, 111);"></rect><circle  cx="200" cy="88.88888888888889" r="88.88888888888889" id="v-508" stroke="#073b6f" stroke-width="2" pointer-events="visiblePainted" fill="#08427b" style="fill: rgb(8, 66, 123); stroke: rgb(7, 59, 111);"></circle><line  x1="80" y1="266.6666666666667" x2="80" y2="400" id="v-515" stroke="#073b6f" stroke-width="2" style="stroke: rgb(7, 59, 111);"></line><line  x1="320" y1="266.6666666666667" x2="320" y2="400" id="v-516" stroke="#073b6f" stroke-width="2" style="stroke: rgb(7, 59, 111);"></line><text  id="v-510" font-size="34" xml:space="preserve" y="0.8em" font-weight="bold" text-anchor="middle" pointer-events="visible" font-family="Open Sans" fill="#ffffff" transform="matrix(1,0,0,1,200,243.1)" style="fill: rgb(255, 255, 255);"><tspan dy="0" >User</tspan></text><text  id="v-511" font-size="17" xml:space="preserve" y="0.8em" text-anchor="middle" font-family="Open Sans" fill="#ffffff" transform="matrix(1,0,0,1,200,285.6)" style="fill: rgb(255, 255, 255);"><tspan dy="0" >[Person]</tspan></text><text  id="v-512" font-size="24" xml:space="preserve" display="none" y="0.8em" text-anchor="middle" font-family="Open Sans" fill="#ffffff" transform="matrix(1,0,0,1,200,316.9)" style="fill: rgb(255, 255, 255);"><tspan dy="0" style="fill-opacity: 0; stroke-opacity: 0;" >-</tspan></text><g  id="v-513" font-weight="normal" text-anchor="middle" color="#ffffff" transform="matrix(1,0,0,1,197.5,326.9)" display="none" style="fill: rgb(255, 255, 255);"><g ></g><g ></g><g ></g><g ></g></g><image  id="v-514"></image></g></g><g   id="j_42"  transform="translate(208,908)" style=""><g  id="v-520" style="opacity: 1;"><rect  id="v-521" rx="20" ry="20" stroke="#0f5eaa" stroke-width="2" pointer-events="visiblePainted" fill="#1168bd" width="450" height="300" style="fill: rgb(17, 104, 189); stroke: rgb(15, 94, 170);"></rect><text  id="v-522" font-size="34" xml:space="preserve" y="0.8em" font-weight="bold" text-anchor="middle" pointer-events="visible" font-family="Open Sans" fill="#ffffff" transform="matrix(1,0,0,1,225,98.1)" style="fill: rgb(255, 255, 255);"><tspan dy="0" >Ask me!</tspan></text><text  id="v-523" font-size="17" xml:space="preserve" y="0.8em" text-anchor="middle" font-family="Open Sans" fill="#ffffff" transform="matrix(1,0,0,1,225,140.6)" style="fill: rgb(255, 255, 255);"><tspan dy="0" >[Software System]</tspan></text><text  id="v-524" font-size="24" xml:space="preserve" y="0.8em" text-anchor="middle" font-family="Open Sans" fill="#ffffff" transform="matrix(1,0,0,1,225,171.9)" style="fill: rgb(255, 255, 255);"><tspan dy="0" >To answer user's questions</tspan></text><g  id="v-525" color="#ffffff" transform="matrix(1,0,0,1,210,211.9)" display="none" style="fill: rgb(255, 255, 255);"><g  transform="translate(5 0)"><svg xmlns="http://www.w3.org/2000/svg" width="20" height="20" fill="currentColor" viewBox="0 0 16 16"><path fill-rule="evenodd" d="M6.5 12a5.5 5.5 0 1 0 0-11 5.5 5.5 0 0 0 0 11zM13 6.5a6.5 6.5 0 1 1-13 0 6.5 6.5 0 0 1 13 0z"></path><path d="M10.344 11.742c.03.04.062.078.098.115l3.85 3.85a1 1 0 0 0 1.415-1.414l-3.85-3.85a1.007 1.007 0 0 0-.115-.1 6.538 6.538 0 0 1-1.398 1.4z"></path><path fill-rule="evenodd" d="M6.5 3a.5.5 0 0 1 .5.5V6h2.5a.5.5 0 0 1 0 1H7v2.5a.5.5 0 0 1-1 0V7H3.5a.5.5 0 0 1 0-1H6V3.5a.5.5 0 0 1 .5-.5z"></path></svg></g><g ></g><g ></g><g ></g></g><image  id="v-526"></image></g></g><g   id="j_43" ><path  stroke="#707070" d="M 433 608 L 433 908" id="v-542" stroke-width="2" stroke-dasharray="30 30" fill="none" style="opacity: 1;"></path><path  fill="black" stroke="black" d="M 0 0 0 0" transform="matrix(6.123233995736766e-17,1,-1,6.123233995736766e-17,433,608)"></path><path  fill="#707070" stroke="#707070" d="M 20 0 L 0 10 L 20 20 z" id="v-544" transform="matrix(-1.8369701987210297e-16,-1,1,-1.8369701987210297e-16,423,908)" style="opacity: 1;"></path><path  d="M 433 608 L 433 908" id="v-543" fill="none" style="cursor: auto; pointer-events: visiblepainted;"></path><g ><g id="v-533"  label-idx="0" cursor="move" transform="matrix(1,0,0,1,433,758)" style="cursor: default; opacity: 1;"><rect joint-selector="rect" id="v-537" fill="#ffffff" rx="3" ry="3" pointer-events="none" width="165.9375" height="32.96875" transform="matrix(1,0,0,1,-83,-16.5)"></rect><text joint-selector="text" id="v-536" font-size="24px" xml:space="preserve" y="0.8em" fill="#707070" text-anchor="middle" pointer-events="none" font-family="Open Sans" font-weight="normal" transform="matrix(1,0,0,1,0,-9.8)"><tspan dy="0" >asks questions</tspan></text></g><g id="v-534"  label-idx="1" cursor="move" transform="matrix(1,0,0,1,433,785)" style="cursor: default; opacity: 1;"><rect joint-selector="rect" id="v-539" fill="#ffffff" rx="3" ry="3" pointer-events="none" width="78.28125" height="23.140625" transform="matrix(1,0,0,1,-39.1,-11.6)"></rect><text joint-selector="text" id="v-538" font-size="17px" xml:space="preserve" y="0.8em" fill="#707070" text-anchor="middle" pointer-events="none" font-family="Open Sans" font-weight="normal" transform="matrix(1,0,0,1,0,-7)"><tspan dy="0" >[REST api]</tspan></text></g><g id="v-535"  label-idx="2" cursor="move" transform="matrix(1,0,0,1,423,794.25)" style="cursor: default; opacity: 1;"><rect joint-selector="rect" id="v-541" fill="#ffffff" rx="3" ry="3"  width="0" height="0" transform="matrix(1,0,0,1,0,0)" display="none"></rect><text joint-selector="text" id="v-540" fill="#000000" font-size="14" text-anchor="middle" pointer-events="none"></text></g></g><g  display="none" style="display: none;"></g><g  id="v-546" display="none"><g  id="v-531"><path  end="source" d="M 26 0 L 0 13 L 26 26 z"></path></g><g  id="v-532"><path  end="target" d="M 26 0 L 0 13 L 26 26 z"></path></g></g><g  id="v-545" display="none"><g  id="v-530" transform="translate(433, 648) "><g  event="remove"><circle r="11"></circle><path transform="scale(.8) translate(-16, -16)" d="M24.778,21.419 19.276,15.917 24.777,10.415 21.949,7.585 16.447,13.087 10.945,7.585 8.117,10.415 13.618,15.917 8.116,21.419 10.946,24.248 16.447,18.746 21.948,24.248z"></path><title>Remove link.</title></g><g  event="link:options"><circle r="11" transform="translate(25)"></circle><path fill="white" transform="scale(.55) translate(29, -16)" d="M31.229,17.736c0.064-0.571,0.104-1.148,0.104-1.736s-0.04-1.166-0.104-1.737l-4.377-1.557c-0.218-0.716-0.504-1.401-0.851-2.05l1.993-4.192c-0.725-0.91-1.549-1.734-2.458-2.459l-4.193,1.994c-0.647-0.347-1.334-0.632-2.049-0.849l-1.558-4.378C17.165,0.708,16.588,0.667,16,0.667s-1.166,0.041-1.737,0.105L12.707,5.15c-0.716,0.217-1.401,0.502-2.05,0.849L6.464,4.005C5.554,4.73,4.73,5.554,4.005,6.464l1.994,4.192c-0.347,0.648-0.632,1.334-0.849,2.05l-4.378,1.557C0.708,14.834,0.667,15.412,0.667,16s0.041,1.165,0.105,1.736l4.378,1.558c0.217,0.715,0.502,1.401,0.849,2.049l-1.994,4.193c0.725,0.909,1.549,1.733,2.459,2.458l4.192-1.993c0.648,0.347,1.334,0.633,2.05,0.851l1.557,4.377c0.571,0.064,1.148,0.104,1.737,0.104c0.588,0,1.165-0.04,1.736-0.104l1.558-4.377c0.715-0.218,1.399-0.504,2.049-0.851l4.193,1.993c0.909-0.725,1.733-1.549,2.458-2.458l-1.993-4.193c0.347-0.647,0.633-1.334,0.851-2.049L31.229,17.736zM16,20.871c-2.69,0-4.872-2.182-4.872-4.871c0-2.69,2.182-4.872,4.872-4.872c2.689,0,4.871,2.182,4.871,4.872C20.871,18.689,18.689,20.871,16,20.871z"></path><title>Link options.</title></g></g></g></g></g><g ></g><g ></g><g ></g></g></svg>